<svg xmlns="http://www.w3.org/2000/svg" width="1024" height="1024"><path fill="#279CEE" d="M0 0 C1.604926 -0.001872 3.209851 -0.004174 4.814776 -0.006865 C9.191481 -0.01294 13.568166 -0.012855 17.944874 -0.011671 C22.678564 -0.011466 27.412248 -0.016996 32.145935 -0.021729 C41.408284 -0.030012 50.670626 -0.032782 59.932978 -0.033341 C67.468244 -0.033817 75.003507 -0.035878 82.538773 -0.039042 C103.937225 -0.047842 125.335672 -0.052462 146.734126 -0.051711 C147.886187 -0.051671 149.038248 -0.051631 150.22522 -0.05159 C151.378699 -0.051549 152.532179 -0.051508 153.720613 -0.051466 C172.400336 -0.05106 191.080039 -0.060623 209.759757 -0.074728 C228.973872 -0.089121 248.187977 -0.095997 267.402098 -0.095135 C278.175641 -0.094804 288.949164 -0.097507 299.722702 -0.108313 C308.897963 -0.117456 318.073193 -0.119561 327.248456 -0.112803 C331.921434 -0.109557 336.594354 -0.109411 341.267326 -0.118156 C403.000384 -0.226284 458.688875 12.514388 504.328735 56.737228 C505.678376 58.043037 507.044965 59.331265 508.41272 60.618088 C541.489221 92.446419 563.708251 140.834546 564.866068 186.870171 C564.919581 191.468218 564.915213 196.066245 564.912537 200.664536 C564.915124 202.447651 564.918138 204.230766 564.92154 206.01388 C564.929575 210.897098 564.931398 215.780303 564.932137 220.663527 C564.933994 225.937173 564.941545 231.21081 564.948273 236.484451 C564.961833 248.009761 564.967877 259.535067 564.972283 271.060384 C564.97505 278.264533 564.979288 285.468681 564.983788 292.672829 C564.995978 312.640178 565.006277 332.607526 565.009663 352.574879 C565.009882 353.851936 565.010102 355.128994 565.010328 356.444751 C565.010546 357.724777 565.010765 359.004803 565.010989 360.323618 C565.011433 362.917217 565.011879 365.510817 565.012329 368.104416 C565.012551 369.390917 565.012772 370.677418 565.013 372.002904 C565.016945 392.829036 565.034389 413.655134 565.057689 434.481253 C565.081447 455.890893 565.093867 477.300514 565.095031 498.710167 C565.095945 510.719555 565.101636 522.728898 565.11985 534.738274 C565.135312 544.9687 565.140336 555.199068 565.132112 565.429504 C565.128227 570.64133 565.129031 575.853035 565.143169 581.064846 C565.264464 628.491628 565.264464 628.491628 558.959595 651.008713 C558.699526 651.963022 558.439458 652.917331 558.171509 653.900558 C550.620988 680.958111 537.422399 706.038495 518.772095 727.133713 C518.334619 727.631452 517.897144 728.129191 517.446411 728.642014 C483.13308 767.463665 434.998841 794.223913 382.772095 798.133713 C377.30222 798.285542 371.833513 798.281864 366.362045 798.280884 C364.688463 798.284187 363.014882 798.287914 361.341301 798.292025 C356.756127 798.302 352.170965 798.305755 347.585781 798.308415 C342.634508 798.312331 337.683246 798.321909 332.731979 798.330627 C320.780004 798.350355 308.828028 798.360454 296.876041 798.369355 C291.238182 798.373745 285.600324 798.37911 279.962465 798.384344 C261.203853 798.401354 242.445241 798.415846 223.686622 798.423093 C218.822779 798.425003 213.958936 798.426923 209.095093 798.428879 C207.886307 798.429363 206.677521 798.429846 205.432105 798.430345 C185.874686 798.438635 166.317328 798.463957 146.759936 798.496459 C126.649833 798.529606 106.539761 798.547549 86.429631 798.550737 C75.151204 798.552895 63.872866 798.561543 52.594465 798.587198 C42.984025 798.60901 33.373696 798.616905 23.763234 798.607231 C18.869092 798.602717 13.97518 798.604407 9.08107 798.623993 C-10.689331 798.69866 -29.848611 798.629438 -49.227905 794.133713 C-50.654074 793.804823 -50.654074 793.804823 -52.109054 793.469289 C-88.619183 784.90042 -120.984339 766.712394 -148.227905 741.133713 C-148.775757 740.625178 -149.323608 740.116642 -149.888062 739.592697 C-165.855572 724.660443 -178.374678 707.622851 -188.227905 688.133713 C-188.551943 687.512546 -188.875981 686.891379 -189.209839 686.251389 C-207.738764 650.595049 -208.541379 611.658471 -208.489355 572.48146 C-208.484787 567.383234 -208.491835 562.285021 -208.497314 557.186798 C-208.506164 547.226696 -208.504306 537.266623 -208.498489 527.30652 C-208.493955 519.20555 -208.493367 511.104589 -208.495537 503.003618 C-208.495843 501.846586 -208.49615 500.689554 -208.496465 499.497461 C-208.497105 497.146308 -208.497753 494.795154 -208.498411 492.444001 C-208.504101 470.446129 -208.497577 448.448274 -208.48681 426.450405 C-208.477874 407.611027 -208.479429 388.771674 -208.488647 369.932297 C-208.499371 348.006609 -208.503553 326.080936 -208.497423 304.155247 C-208.496786 301.813495 -208.496157 299.471743 -208.495537 297.129992 C-208.495228 295.978074 -208.49492 294.826157 -208.494602 293.639333 C-208.492881 285.555795 -208.495776 277.472267 -208.500496 269.388731 C-208.506128 259.526692 -208.504539 249.664686 -208.493934 239.802651 C-208.488709 234.779373 -208.486567 229.756149 -208.493233 224.732872 C-208.49926 220.120756 -208.495807 215.508741 -208.485278 210.896634 C-208.483072 209.24214 -208.484114 207.587637 -208.489029 205.933148 C-208.531143 190.558116 -207.658121 175.014311 -204.415405 159.946213 C-204.242913 159.125644 -204.07042 158.305075 -203.8927 157.459641 C-196.692337 124.205714 -181.212161 94.946465 -159.227905 69.133713 C-158.47896 68.249416 -157.730015 67.365119 -156.958374 66.454025 C-152.890384 61.748351 -152.890384 61.748351 -151.227905 60.133713 C-150.567905 60.133713 -149.907905 60.133713 -149.227905 60.133713 C-149.227905 59.473713 -149.227905 58.813713 -149.227905 58.133713 C-147.759155 56.653244 -147.759155 56.653244 -145.727905 54.946213 C-145.078218 54.395783 -144.42853 53.845353 -143.759155 53.278244 C-142.923843 52.570549 -142.08853 51.862853 -141.227905 51.133713 C-140.640254 50.611723 -140.052603 50.089733 -139.447144 49.551926 C-100.450002 14.916998 -51.509142 -0.057584 0 0 Z M8.147095 214.696213 C-3.417229 228.276149 -10.858018 245.454141 -19.167664 261.134323 C-21.006421 264.601827 -22.849846 268.066849 -24.692749 271.53215 C-27.549362 276.904552 -30.403384 282.27832 -33.255249 287.653244 C-37.234743 295.152813 -41.22982 302.644042 -45.227905 310.133713 C-45.887905 310.133713 -46.547905 310.133713 -47.227905 310.133713 C-48.007144 308.561701 -48.007144 308.561701 -48.802124 306.957932 C-49.505834 305.578659 -50.210301 304.199773 -50.915405 302.821213 C-51.424907 301.785773 -51.424907 301.785773 -51.944702 300.729416 C-52.289526 300.062326 -52.634351 299.395236 -52.989624 298.707932 C-53.298596 298.095224 -53.607568 297.482516 -53.925903 296.851242 C-55.780222 294.405127 -57.422405 293.407116 -60.227905 292.133713 C-63.012451 291.846329 -65.564848 291.71245 -68.345093 291.735275 C-69.120474 291.732405 -69.895855 291.729535 -70.694733 291.726578 C-72.330309 291.724542 -73.965911 291.730036 -75.60144 291.742599 C-78.088168 291.758618 -80.57326 291.742757 -83.059937 291.723557 C-84.654992 291.72554 -86.250047 291.729386 -87.845093 291.735275 C-88.580735 291.729203 -89.316376 291.72313 -90.07431 291.716873 C-95.694885 291.792363 -100.614245 292.830645 -104.970093 296.668869 C-109.619422 302.937448 -109.930747 307.371896 -109.227905 315.133713 C-104.951607 324.755385 -95.190288 328.184306 -86.014526 331.774094 C-80.833076 333.716435 -75.655837 335.070452 -70.227905 336.133713 C-72.962364 339.637239 -75.7303 342.671035 -79.102905 345.571213 C-92.910134 357.461491 -101.206813 370.806135 -103.227905 389.133713 C-103.58464 395.479399 -103.51223 401.840276 -103.502563 408.193527 C-103.506918 410.095247 -103.512104 411.996966 -103.518051 413.898682 C-103.531366 419.030529 -103.532029 424.162302 -103.529488 429.294163 C-103.528414 433.586273 -103.533312 437.878369 -103.538093 442.170476 C-103.54916 452.293731 -103.54964 462.416949 -103.543579 472.540207 C-103.537527 482.975214 -103.549887 493.410088 -103.571149 503.845072 C-103.588763 512.820305 -103.594767 521.795495 -103.591511 530.770744 C-103.5897 536.124659 -103.592326 541.478477 -103.606226 546.832376 C-103.618797 551.861522 -103.616867 556.890457 -103.603815 561.9196 C-103.601449 563.763048 -103.604185 565.606512 -103.612438 567.449944 C-103.622904 569.969436 -103.614807 572.488223 -103.602127 575.00769 C-103.609501 575.733959 -103.616876 576.460228 -103.624473 577.208504 C-103.557985 583.503651 -101.968703 587.945282 -98.040405 592.883713 C-89.780998 599.491239 -80.188832 598.591354 -70.173218 598.567307 C-68.504667 598.571875 -66.836118 598.577182 -65.167572 598.583191 C-61.679304 598.592098 -58.191266 598.589727 -54.703003 598.579758 C-50.255779 598.56828 -45.80935 598.588474 -41.36223 598.617675 C-37.918437 598.636115 -34.474832 598.635729 -31.031002 598.630037 C-29.392515 598.629885 -27.754014 598.635854 -26.115574 598.648329 C-11.406851 598.806864 -11.406851 598.806864 1.209595 591.946213 C7.894751 579.912932 5.772095 571.99151 5.772095 557.133713 C103.452095 557.133713 201.132095 557.133713 301.772095 557.133713 C303.422095 550.863713 305.072095 544.593713 306.772095 538.133713 C307.432095 535.823713 308.092095 533.513713 308.772095 531.133713 C308.203061 531.133116 307.634028 531.132519 307.047751 531.131903 C273.328196 531.096016 239.608744 531.039386 205.889274 530.955792 C201.841263 530.945774 197.793251 530.93593 193.745239 530.926193 C192.939347 530.924252 192.133455 530.92231 191.303142 530.92031 C178.251283 530.889282 165.199441 530.872307 152.147551 530.860519 C138.756825 530.848111 125.366191 530.820619 111.975524 530.7791 C103.711586 530.753953 95.447801 530.740596 87.183824 530.742283 C81.51823 530.742313 75.852793 530.727701 70.187259 530.701548 C66.917619 530.686889 63.648364 530.68088 60.378689 530.68791 C56.833404 530.694519 53.289057 530.676703 49.743866 530.652695 C48.710787 530.660455 47.677708 530.668216 46.613324 530.676211 C40.685876 530.60497 37.304392 530.055593 32.772095 526.133713 C30.037423 522.653221 30.299067 518.37442 30.772095 514.133713 C31.852738 511.582927 32.895807 509.518582 34.334595 507.196213 C34.723005 506.53871 35.111416 505.881208 35.511597 505.203781 C36.40133 503.704312 37.299641 502.209912 38.204712 500.71965 C39.989223 497.775486 41.744289 494.814683 43.498657 491.852463 C61.928247 460.845355 61.928247 460.845355 69.920724 458.0211 C74.217387 457.031114 78.070154 456.851857 82.456528 456.873016 C83.731101 456.867278 83.731101 456.867278 85.031423 456.861424 C87.865535 456.851143 90.699444 456.855077 93.533569 456.859055 C95.570859 456.854705 97.608146 456.849522 99.645432 456.843567 C105.17019 456.830188 110.69488 456.829597 116.219651 456.83213 C120.834508 456.833201 125.449352 456.828315 130.064206 456.823525 C140.952116 456.812434 151.839992 456.81199 162.727905 456.818039 C173.955197 456.824081 185.182363 456.811762 196.409634 456.790469 C206.054839 456.77285 215.700004 456.766852 225.345224 456.770107 C231.103337 456.771919 236.861361 456.769288 242.619459 456.755392 C248.034301 456.742813 253.448948 456.744759 258.863787 456.757803 C260.848716 456.760168 262.833659 456.757436 264.818573 456.74918 C267.532834 456.738705 270.24644 456.746819 272.960678 456.759491 C273.741918 456.752117 274.523157 456.744742 275.328071 456.737145 C282.250804 456.804914 288.94596 458.511389 294.230591 463.294846 C298.057528 467.860017 300.72908 473.303839 303.584595 478.508713 C304.64393 480.407869 305.707429 482.304656 306.770966 484.201462 C307.469049 485.447477 308.165699 486.694298 308.86087 487.94194 C311.57572 492.811123 314.380698 497.617648 317.272095 502.383713 C317.822806 503.293227 317.822806 503.293227 318.384644 504.221115 C319.177687 505.527003 319.974333 506.830702 320.772095 508.133713 C324.382895 506.668805 325.995371 504.816722 328.272095 501.696213 C340.138453 486.536068 356.051651 476.317064 373.772095 469.133713 C374.697642 468.756017 375.623188 468.378322 376.576782 467.989182 C393.64907 461.675746 412.263473 460.710738 430.147095 463.258713 C430.84061 463.351042 431.534126 463.443371 432.248657 463.538498 C438.072177 464.485082 443.535451 466.323236 449.106567 468.211349 C450.358124 468.632201 450.358124 468.632201 451.634964 469.061554 C453.681422 469.750054 455.726862 470.441581 457.772095 471.133713 C457.841966 460.55369 457.895093 449.973723 457.927531 439.393515 C457.943109 434.479356 457.964201 429.565357 457.998413 424.651291 C458.03129 419.898545 458.049007 415.145951 458.056726 410.393101 C458.06222 408.590441 458.072944 406.787789 458.089285 404.985195 C458.269439 384.265538 455.034891 366.426291 440.029907 351.098557 C438.326659 349.414961 436.615591 347.739241 434.897095 346.071213 C433.578384 344.772805 433.578384 344.772805 432.233032 343.448166 C430.086132 341.336269 427.932517 339.23176 425.772095 337.133713 C426.791945 336.764034 426.791945 336.764034 427.832397 336.386887 C430.961026 335.247778 434.085276 334.097086 437.209595 332.946213 C438.278872 332.558849 439.348149 332.171486 440.449829 331.772385 C454.451113 326.701245 454.451113 326.701245 464.022095 315.883713 C465.437302 310.694618 465.408073 305.970985 463.647095 300.883713 C461.171627 297.253027 458.33416 294.077534 454.084106 292.511887 C450.63901 291.948375 447.199514 291.92982 443.717407 291.895432 C442.938239 291.88736 442.159072 291.879288 441.356293 291.870972 C439.710573 291.857169 438.064826 291.84643 436.419067 291.838547 C434.741247 291.827015 433.063464 291.806544 431.385864 291.777023 C428.95446 291.734262 426.524141 291.718168 424.092407 291.707932 C423.348467 291.690423 422.604527 291.672915 421.838043 291.654877 C416.655316 291.676311 413.728492 292.814768 409.772095 296.133713 C408.319279 297.891135 408.319279 297.891135 407.436157 299.805588 C407.094556 300.469455 406.752954 301.133322 406.401001 301.817307 C406.069712 302.499221 405.738423 303.181135 405.397095 303.883713 C405.042603 304.581096 404.68811 305.278478 404.322876 305.996994 C403.458594 307.702199 402.613353 309.417033 401.772095 311.133713 C395.183018 299.951662 389.204256 288.47823 383.237427 276.95549 C380.72764 272.122416 378.183259 267.307656 375.636353 262.494064 C373.238273 257.951641 370.876839 253.392405 368.541626 248.817307 C360.578319 232.919246 360.578319 232.919246 350.772095 218.133713 C350.153345 217.322892 349.534595 216.512072 348.897095 215.676682 C338.73063 203.317048 323.756033 196.882239 308.07976 195.306981 C299.081951 194.631391 290.0129 194.858384 280.996704 194.874924 C278.50507 194.87221 276.013437 194.868647 273.521805 194.864304 C267.485756 194.856165 261.449776 194.857308 255.413729 194.863129 C250.503329 194.867666 245.592943 194.86825 240.682541 194.866081 C239.629874 194.865622 239.629874 194.865622 238.55594 194.865153 C237.129807 194.864513 235.703674 194.863865 234.277541 194.863207 C220.938823 194.857519 207.600134 194.864038 194.261421 194.874808 C182.843253 194.883742 171.425125 194.88219 160.006958 194.872971 C146.712416 194.862241 133.417898 194.858068 120.123353 194.864195 C118.702785 194.864832 117.282217 194.865461 115.861649 194.866081 C115.1629 194.86639 114.464152 194.866698 113.744229 194.867016 C108.845934 194.868735 103.947655 194.865845 99.049362 194.861122 C92.443507 194.854892 85.837715 194.859396 79.231863 194.870911 C76.815672 194.873542 74.399474 194.872818 71.983286 194.868385 C47.518737 194.827663 26.15495 195.940626 8.147095 214.696213 Z M344.440063 509.1259 C326.614935 530.582847 317.708371 556.412041 320.172729 584.338058 C322.330655 603.411867 330.038452 621.768237 342.772095 636.133713 C343.261938 636.753752 343.751782 637.373791 344.25647 638.012619 C356.277167 653.106022 377.523524 664.761424 396.772095 667.133713 C422.52713 669.917311 446.118629 664.791248 466.893188 648.539963 C486.094456 632.491142 498.305558 610.33158 501.490845 585.461838 C503.700863 559.30995 497.186696 533.671088 480.358032 513.161057 C465.746848 496.055819 448.06831 485.182077 425.772095 481.133713 C425.068267 481.002228 424.364438 480.870744 423.639282 480.735275 C394.742685 476.261743 364.306527 488.033112 344.440063 509.1259 Z" transform="translate(333.228 109.866)"/><path fill="#2F91EF" d="M0 0 C1.087416 -0.00624 2.174832 -0.01248 3.295199 -0.018909 C6.927898 -0.034825 10.559924 -0.022239 14.192627 -0.009644 C16.801487 -0.015065 19.410344 -0.022188 22.019196 -0.030884 C28.362905 -0.048641 34.706425 -0.044841 41.050142 -0.033233 C46.207221 -0.024188 51.364247 -0.02298 56.521332 -0.027328 C57.256184 -0.027941 57.991037 -0.028554 58.748157 -0.029186 C60.241141 -0.030465 61.734125 -0.031762 63.227109 -0.033076 C77.216607 -0.044474 91.206 -0.031381 105.19548 -0.009875 C117.191001 0.007996 129.186367 0.004891 141.181885 -0.01355 C155.122381 -0.034971 169.062786 -0.043375 183.003297 -0.031101 C184.490693 -0.029827 185.978089 -0.028569 187.465485 -0.027328 C188.563136 -0.026403 188.563136 -0.026403 189.682963 -0.025458 C194.831989 -0.022009 199.980957 -0.027825 205.129974 -0.037247 C212.064128 -0.049657 218.997985 -0.040782 225.93211 -0.01767 C228.476592 -0.012382 231.021099 -0.013898 233.565571 -0.02272 C237.039651 -0.033655 240.512796 -0.019935 243.986816 0 C244.993049 -0.008923 245.999282 -0.017846 247.036006 -0.027039 C255.941671 0.072041 262.388643 3.125914 268.865982 9.202011 C276.480579 17.455496 281.36419 28.741446 286.372314 38.691528 C287.035842 40.00381 287.699412 41.316071 288.363022 42.628311 C289.73618 45.347949 291.104161 48.070122 292.469238 50.793823 C294.216253 54.276867 295.983528 57.749218 297.755494 61.219619 C299.126007 63.9123 300.482112 66.612046 301.834333 69.313951 C302.48015 70.598379 303.131237 71.880171 303.787783 73.159147 C304.700292 74.940193 305.590639 76.732541 306.47998 78.525269 C306.991018 79.538628 307.502056 80.551987 308.02858 81.596054 C309.19567 85.118367 309.201943 87.000971 307.993408 90.507935 C304.203874 93.399511 301.392258 93.881186 296.686209 93.872634 C294.766892 93.880069 294.766892 93.880069 292.808801 93.887654 C291.391036 93.87793 289.973273 93.867918 288.555511 93.857651 C287.047782 93.857693 285.540051 93.859045 284.032323 93.861596 C279.887737 93.86474 275.743403 93.849032 271.598866 93.830225 C267.129881 93.813183 262.660892 93.813434 258.191879 93.811432 C249.437079 93.804634 240.682396 93.781366 231.927645 93.752029 C224.814905 93.728413 217.702171 93.710305 210.589405 93.696138 C209.577942 93.694111 208.566479 93.692085 207.524365 93.689996 C205.469765 93.68589 203.415165 93.681792 201.360565 93.6777 C182.086766 93.638554 162.813061 93.580156 143.539333 93.51571 C125.891306 93.45726 108.24332 93.421715 90.595215 93.397147 C72.486541 93.371755 54.377956 93.33169 36.269351 93.275333 C26.097655 93.243917 15.926024 93.218265 5.754284 93.207747 C-2.902442 93.198609 -11.558993 93.175552 -20.215627 93.13431 C-24.635223 93.113632 -29.054592 93.099466 -33.474241 93.102507 C-37.515731 93.105116 -41.556713 93.089483 -45.598084 93.05896 C-47.064311 93.051146 -48.530592 93.05015 -49.996825 93.056458 C-51.98159 93.064009 -53.966404 93.044833 -55.951075 93.024123 C-57.056008 93.020978 -58.160942 93.017833 -59.299359 93.014593 C-62.006592 92.507935 -62.006592 92.507935 -63.894184 90.656021 C-65.495225 87.564371 -64.915525 85.822559 -64.006592 82.507935 C-62.832489 79.658524 -62.832489 79.658524 -61.342041 76.677124 C-60.784109 75.551878 -60.226176 74.426632 -59.651337 73.267288 C-59.038328 72.051757 -58.424966 70.836404 -57.811279 69.621216 C-57.178765 68.356032 -56.546786 67.09058 -55.915314 65.824875 C-54.590451 63.173767 -53.260072 60.525525 -51.925537 57.879272 C-50.231808 54.520012 -48.550432 51.154757 -46.873091 47.78729 C-45.568324 45.170728 -44.257584 42.557193 -42.945072 39.94451 C-42.323996 38.706816 -41.704524 37.468316 -41.086819 36.228937 C-30.870453 15.761378 -30.870453 15.761378 -23.569092 8.570435 C-22.889756 7.880786 -22.21042 7.191138 -21.510498 6.480591 C-14.604495 1.039824 -8.683365 -0.077001 0 0 Z" transform="translate(389.007 336.492)"/><path fill="#398FF0" d="M0 0 C0.786832 0.253457 1.573663 0.506914 2.384338 0.768051 C4.958285 1.600111 7.525861 2.450228 10.09375 3.300781 C11.894433 3.887208 13.695548 4.47231 15.49707 5.056152 C18.306535 5.967144 21.115534 6.879412 23.922913 7.796814 C30.67813 10.003188 37.450253 12.149929 44.234375 14.265625 C46.11525 14.853873 47.996109 15.44217 49.876953 16.030518 C52.59478 16.880396 55.313025 17.728757 58.032959 18.571869 C60.549939 19.353107 63.064244 20.14245 65.578125 20.933594 C66.689488 21.275047 66.689488 21.275047 67.823303 21.623398 C77.019016 24.537495 77.019016 24.537495 79.96875 28.425781 C80.852207 31.517879 80.363561 33.485692 79.59375 36.613281 C78.225135 39.000724 76.875162 41.144556 75.28125 43.363281 C74.89002 43.939492 74.498789 44.515703 74.095703 45.109375 C71.863955 48.284897 70.255858 50.32284 66.59375 51.613281 C63.718713 51.814583 60.940187 51.907032 58.064941 51.903809 C56.77642 51.913884 56.77642 51.913884 55.461868 51.924164 C52.622957 51.943157 49.784283 51.947069 46.945312 51.949219 C44.97 51.955646 42.994689 51.962374 41.019379 51.969391 C36.878457 51.981367 32.737618 51.985071 28.59668 51.983887 C23.294821 51.983684 17.993498 52.010986 12.691767 52.045431 C8.611639 52.067687 4.53164 52.071725 0.451458 52.070667 C-1.502945 52.073025 -3.457351 52.08186 -5.411694 52.097332 C-8.147726 52.116964 -10.8826 52.111165 -13.618652 52.099121 C-14.825192 52.11598 -14.825192 52.11598 -16.056107 52.133179 C-21.282426 52.074824 -24.269252 51.084908 -28.40625 47.613281 C-32.312222 41.399984 -31.854086 34.900528 -31.78125 27.738281 C-31.792852 26.605195 -31.804453 25.472109 -31.816406 24.304688 C-31.790521 16.858288 -31.520187 9.536409 -26.722656 3.492188 C-26.143867 3.057773 -25.565078 2.623359 -24.96875 2.175781 C-24.104434 1.49709 -24.104434 1.49709 -23.222656 0.804688 C-15.584027 -4.205596 -8.286156 -2.796673 0 0 Z" transform="translate(300.406 487.387)"/><path fill="#18B5ED" d="M0 0 C4.37424 3.110571 6.927357 6.78207 8.625 11.875 C8.876368 16.395108 8.895808 20.917435 8.920166 25.443604 C8.931681 26.93426 8.952126 28.424875 8.981689 29.915283 C9.024522 32.075316 9.040555 34.234126 9.050781 36.394531 C9.065364 37.684641 9.079946 38.974751 9.094971 40.303955 C8.539282 44.526321 7.342748 46.626654 4.625 49.875 C0.842432 52.576511 -3.445086 52.177731 -7.903809 52.181396 C-8.762823 52.18972 -9.621837 52.198044 -10.506882 52.206619 C-13.34578 52.230709 -16.184448 52.23949 -19.023438 52.246094 C-20.998749 52.255061 -22.974061 52.264182 -24.949371 52.273453 C-29.090288 52.289942 -33.231123 52.297643 -37.37207 52.300537 C-42.674033 52.305922 -47.975235 52.343608 -53.276983 52.389281 C-57.357114 52.419046 -61.437062 52.426261 -65.517292 52.427263 C-67.471711 52.431466 -69.426131 52.443904 -71.380444 52.464781 C-74.116664 52.491684 -76.851117 52.486873 -79.587402 52.474365 C-80.391762 52.4892 -81.196122 52.504034 -82.024857 52.519318 C-87.831237 52.443863 -90.301709 51.0192 -94.375 46.875 C-98.071204 42.251335 -101.036885 37.811474 -102.0625 31.9375 C-101.229798 28.228192 -100.277131 27.279743 -97.375 24.875 C-94.362061 23.557373 -94.362061 23.557373 -90.761719 22.386719 C-90.095651 22.166496 -89.429583 21.946272 -88.743332 21.719376 C-86.520211 20.988074 -84.291766 20.274832 -82.0625 19.5625 C-80.487548 19.051208 -78.912847 18.539145 -77.338379 18.026367 C-73.903105 16.910133 -70.46521 15.802398 -67.025879 14.69873 C-62.033733 13.093276 -57.05348 11.453281 -52.074844 9.806473 C-47.844694 8.409879 -43.610174 7.026881 -39.374664 5.646637 C-37.303317 4.969391 -35.233445 4.287617 -33.165131 3.601166 C-30.236906 2.631341 -27.30305 1.680785 -24.367188 0.734375 C-23.5049 0.444341 -22.642613 0.154307 -21.754196 -0.144516 C-14.415049 -2.474588 -6.989855 -3.910868 0 0 Z" transform="translate(743.375 487.125)"/><path fill="#0FC3EA" d="M0 0 C4.337298 2.252059 7.133974 4.438602 9 9 C9.702966 12.397669 9.933848 13.782606 9 17 C3.294377 25.462914 -4.357683 32.58181 -11.625 39.6875 C-13.620697 41.646204 -15.612998 43.608274 -17.601562 45.574219 C-18.081537 46.048649 -18.561511 46.52308 -19.05603 47.011887 C-21.626705 49.571741 -24.09062 52.178319 -26.445312 54.9375 C-31.375959 60.711605 -36.86357 65.968756 -42.25 71.3125 C-43.349194 72.406665 -44.448154 73.501064 -45.546875 74.595703 C-47.552276 76.593002 -49.558959 78.588992 -51.567383 80.583252 C-52.958897 81.965688 -54.343364 83.355501 -55.706055 84.766357 C-58.614494 87.539252 -61.746899 87.532708 -65.59375 87.441406 C-70.273119 86.583015 -72.797032 83.321215 -76 80 C-77.193977 78.82284 -78.390855 77.648618 -79.589844 76.476562 C-91.4621 64.816759 -91.4621 64.816759 -96.574219 58.6875 C-97.574764 57.503293 -98.624511 56.359769 -99.707031 55.25 C-103.838309 50.915544 -105.096144 48.057096 -105 42 C-103.388976 37.34593 -101.306549 34.434137 -97 32 C-92.565252 31.196663 -89.100842 31.495448 -85 33.375 C-80.591836 37.232144 -76.817343 41.566316 -73 46 C-71.688963 47.522094 -70.376611 49.043059 -69.0625 50.5625 C-68.24459 51.523496 -68.24459 51.523496 -67.410156 52.503906 C-66.05086 54.117957 -66.05086 54.117957 -64 55 C-64 55.66 -64 56.32 -64 57 C-60.085785 54.153298 -57.135507 50.925714 -54.019531 47.273438 C-51.772658 44.744076 -49.408557 42.375663 -47 40 C-44.068818 37.10408 -41.235968 34.197574 -38.5625 31.0625 C-35.258564 27.196192 -31.673044 23.643654 -28.055908 20.075439 C-24.747066 16.793995 -21.656986 13.390356 -18.625 9.855469 C-9.303205 -0.788407 -9.303205 -0.788407 0 0 Z" transform="translate(791 642)"/><path fill="#8487F6" d="M0 0 C-1.065289 0.377534 -1.065289 0.377534 -2.1521 0.762695 C-5.415212 1.921473 -8.676356 3.085697 -11.9375 4.25 C-13.054473 4.645742 -14.171445 5.041484 -15.322266 5.449219 C-25.776311 9.189376 -35.42345 13.637466 -45.132812 18.996094 C-45.849531 19.384102 -46.56625 19.772109 -47.304688 20.171875 C-47.943901 20.523467 -48.583115 20.875059 -49.241699 21.237305 C-51 22 -51 22 -54 22 C-54 22.66 -54 23.32 -54 24 C-56.493271 25.664176 -58.986011 27.224537 -61.5625 28.75 C-67.184147 32.08287 -72.128084 35.646437 -77 40 C-78.1633 40.962417 -79.329599 41.921231 -80.5 42.875 C-83.018089 45.024588 -85.1755 47.285135 -87.3125 49.8125 C-91.441289 54.685979 -96.187642 58.817025 -101 63 C-101.66 62.67 -102.32 62.34 -103 62 C-101.548445 60.327426 -100.088556 58.662082 -98.625 57 C-97.406836 55.607812 -97.406836 55.607812 -96.164062 54.1875 C-95.449922 53.465625 -94.735781 52.74375 -94 52 C-93.34 52 -92.68 52 -92 52 C-92 51.34 -92 50.68 -92 50 C-90.53125 48.519531 -90.53125 48.519531 -88.5 46.8125 C-87.850313 46.26207 -87.200625 45.711641 -86.53125 45.144531 C-85.695938 44.436836 -84.860625 43.729141 -84 43 C-83.118523 42.217015 -83.118523 42.217015 -82.219238 41.418213 C-66.059448 27.066054 -23.435363 -6.764687 0 0 Z" transform="translate(276 118)"/><path fill="#8184F6" d="M0 0 C0.99 0.33 1.98 0.66 3 1 C2.563008 1.559453 2.126016 2.118906 1.675781 2.695312 C-7.194114 14.894003 -12.14098 29.852943 -17 44 C-17.33 44 -17.66 44 -18 44 C-17.54557 36.866166 -15.844975 31.314147 -12.9375 24.8125 C-12.539905 23.902825 -12.14231 22.993149 -11.732666 22.055908 C-8.318093 14.391549 -4.403887 7.139817 0 0 Z" transform="translate(153 208)"/><path fill="#7D83F4" d="M0 0 C1.172721 3.485129 0.829071 6.046778 0.125 9.625 C-0.058047 10.586641 -0.241094 11.548281 -0.429688 12.539062 C-1 15 -1 15 -2 17 C-2.368539 19.645998 -2.701236 22.283638 -3 24.9375 C-3.86747 32.60241 -3.86747 32.60241 -5 36 C-5.028644 38.02966 -4.935832 40.035239 -4.839844 42.0625 C-5 44 -5 44 -7 47 C-7.780239 30.903957 -4.526429 15.371479 0 0 Z" transform="translate(133 253)"/><path fill="#7879F5" d="M0 0 C0.99 0.33 1.98 0.66 3 1 C-1.95 5.62 -6.9 10.24 -12 15 C-12.66 14.67 -13.32 14.34 -14 14 C-12.548445 12.327426 -11.088556 10.662082 -9.625 9 C-8.812891 8.071875 -8.000781 7.14375 -7.164062 6.1875 C-6.449922 5.465625 -5.735781 4.74375 -5 4 C-4.34 4 -3.68 4 -3 4 C-3 3.34 -3 2.68 -3 2 C-2.01 1.34 -1.02 0.68 0 0 Z" transform="translate(187 166)"/><path fill="#53C9F0" d="M0 0 C-1.442537 3.365919 -3.332647 5.510471 -6 8 C-6.99 7.67 -7.98 7.34 -9 7 C-7.881216 5.827371 -6.754769 4.662049 -5.625 3.5 C-4.685273 2.525469 -4.685273 2.525469 -3.726562 1.53125 C-2 0 -2 0 0 0 Z" transform="translate(673 600)"/><path fill="#52D0F0" d="M0 0 C3.3 0 6.6 0 10 0 C10 0.66 10 1.32 10 2 C10.66 2 11.32 2 12 2 C12 2.66 12 3.32 12 4 C6.06 2.515 6.06 2.515 0 1 C0 0.67 0 0.34 0 0 Z" transform="translate(764 592)"/><path fill="#7EAAF6" d="M0 0 C-1.393326 3.367204 -2.978929 4.985952 -6 7 C-5.67 5.02 -5.34 3.04 -5 1 C-2 0 -2 0 0 0 Z" transform="translate(263 446)"/><path fill="#44BFF1" d="M0 0 C1.32 0.33 2.64 0.66 4 1 C2.625 2.5 2.625 2.5 1 4 C0.34 4 -0.32 4 -1 4 C-1 5.98 -1 7.96 -1 10 C-1.33 10 -1.66 10 -2 10 C-2.25 3.375 -2.25 3.375 0 0 Z" transform="translate(644 513)"/><path fill="#6A98F4" d="M0 0 C0.66 0.33 1.32 0.66 2 1 C-0.656547 4.738843 -2.581104 6.649782 -7 8 C-6.021337 6.853737 -5.042054 5.708002 -4.0625 4.5625 C-3.517227 3.924414 -2.971953 3.286328 -2.410156 2.628906 C-1.632043 1.730089 -0.840635 0.840635 0 0 Z" transform="translate(370 341)"/><path fill="#7477F6" d="M0 0 C0.99 0.33 1.98 0.66 3 1 C2.319375 1.86625 2.319375 1.86625 1.625 2.75 C0.158865 4.780033 -0.948578 6.735398 -2 9 C-2.6875 7.3125 -2.6875 7.3125 -3 5 C-1.5625 2.25 -1.5625 2.25 0 0 Z" transform="translate(153 208)"/><path fill="#5393F4" d="M0 0 C0.99 0.33 1.98 0.66 3 1 C1.695931 3.019203 0.361766 5.01925 -1 7 C-1.33 7 -1.66 7 -2 7 C-2.125 4.625 -2.125 4.625 -2 2 C-1.34 1.34 -0.68 0.68 0 0 Z" transform="translate(274 491)"/><path fill="#5BC2F1" d="M0 0 C0.66 0 1.32 0 2 0 C5 5.75 5 5.75 5 8 C2 7 2 7 0.8125 5.125 C0 3 0 3 0 0 Z" transform="translate(690 409)"/><path fill="#36C1ED" d="M0 0 C0.66 0 1.32 0 2 0 C2.1875 2.875 2.1875 2.875 2 6 C0.515 6.99 0.515 6.99 -1 8 C-0.67 5.36 -0.34 2.72 0 0 Z" transform="translate(637 654)"/><path fill="#66D4F2" d="M0 0 C0.66 0 1.32 0 2 0 C1.34 3.3 0.68 6.6 0 10 C-0.33 10 -0.66 10 -1 10 C-1.125 2.25 -1.125 2.25 0 0 Z" transform="translate(656 654)"/></svg>